<?xml version="1.0" encoding="UTF-8"?>
<svg width="450px" height="360px" viewBox="0 0 450 360" version="1.1" xmlns="http://www.w3.org/2000/svg" xmlns:xlink="http://www.w3.org/1999/xlink">
    <!-- Generator: Sketch 46.2 (44496) - http://www.bohemiancoding.com/sketch -->
    <title>Bundesliga_logo_(2017)</title>
    <desc>Created with Sketch.</desc>
    <defs></defs>
    <g id="Page-3" stroke="none" stroke-width="1" fill="none" fill-rule="evenodd">
        <g id="Bundesliga_logo_(2017)" fill-rule="nonzero">
            <rect id="rect11" fill="#D20515" x="0" y="0" width="450" height="360"></rect>
            <path d="M370.975967,189.571014 C371.222714,190.471779 370.429218,191.090011 368.806468,192.273377 L367.818647,192.820891 L368.153875,193.474397 C368.383092,193.898365 367.995276,194.53415 367.307291,194.86968 L365.825643,195.611457 C365.155354,195.964708 364.414446,195.894158 364.202925,195.469354 L363.885394,194.868844 L362.015863,195.78733 L362.315699,196.423115 C362.527219,196.847083 362.121707,197.482869 361.416192,197.800845 L359.916848,198.507347 C359.228863,198.825323 358.505819,198.737052 358.294131,198.295363 L358.029521,197.730128 C352.261946,200.450161 345.80647,203.329132 339.157001,206.42007 L339.527455,207.267839 C339.756672,207.691808 339.333464,208.309871 338.663175,208.627848 L337.146301,209.33435 C336.458316,209.652326 335.717575,209.546334 335.541113,209.122366 L335.135434,208.274597 L333.001227,209.316629 L333.406906,210.182119 C333.601064,210.623641 333.212914,211.224151 332.5074,211.559848 L331.008223,212.248629 C330.302708,212.566605 329.597193,212.478334 329.385672,212.054366 L328.997522,211.224151 C325.981405,212.425171 322.683165,212.990406 320.284415,208.451122 C319.261369,206.366957 319.208447,201.580397 318.414868,199.036989 C318.085483,198.213628 317.349083,197.623818 316.474652,197.482718 C287.160531,191.848355 277.230469,198.118503 258.44608,193.47331 C252.537402,192.025031 249.32736,186.584914 242.042879,186.496627 C226.168847,186.019663 221.49482,186.249368 204.28026,185.595862 C203.53952,188.086273 203.451205,188.633804 203.451205,188.633804 L142.953398,188.351103 L152.195608,192.890421 L155.158804,219.613822 C155.158804,219.613822 152.707115,220.320324 152.001617,220.408595 C152.583758,225.707361 153.148036,232.949008 153.447872,239.448794 C153.712482,245.27742 154.012317,251.353371 153.959395,255.221429 C153.977759,257.738489 153.371411,260.220675 152.195575,262.445405 C151.043312,264.385794 149.49941,266.064163 147.662668,267.373215 C147.115919,267.779462 144.770107,269.369092 142.071455,270.905726 C139.372869,272.442443 136.127551,274.208615 134.487205,274.985767 C134.734285,275.69695 135.022768,276.392753 135.351485,277.069932 C98.6471219,294.873902 53.0356431,300.949787 38.2727218,329.24513 C36.5089683,332.530382 30.5649982,330.817123 30.3886529,327.284579 C30.3886529,325.659757 30.3886529,323.027912 30.3886529,321.561945 L29.8594334,321.561945 C29.3831358,321.561945 29.012849,320.908439 29.0480747,320.131387 L29.0480747,318.471123 C29.0480747,317.711625 29.506676,317.111115 29.9652773,317.128669 L30.6001738,317.128669 C30.7873205,315.493817 31.0998438,313.875951 31.5350726,312.28918 L30.9706274,312.094917 C30.5297225,311.936096 30.3886529,311.211705 30.6355664,310.487649 L31.1823153,308.933378 C31.446925,308.209155 31.9936739,307.767633 32.4698046,307.9089 L33.0165535,308.103163 C35.6445876,301.974282 40.7066476,299.27192 43.070122,293.460965 L42.6996683,293.318862 C42.2233707,293.142153 42.0823012,292.435818 42.346911,291.711595 L42.8936598,290.139602 C43.1582696,289.415379 43.7227148,288.973857 44.1811491,289.132845 L44.5868285,289.274948 C44.9395859,288.427179 45.3452652,287.508726 45.8038665,286.572586 L45.3100395,286.237056 C44.8866639,285.972076 44.8866639,285.24802 45.3100395,284.594514 L46.2095458,283.19923 C46.5975288,282.563445 47.2502886,282.245469 47.655801,282.510449 L47.8674888,282.634162 L48.0791766,282.634162 C48.2027168,282.634162 48.2556388,282.634162 48.379012,282.49206 C48.6075614,282.238448 48.8489656,281.996706 49.1022231,281.767836 C51.409086,280.061498 54.545822,280.018834 56.8981611,281.662513 C59.2087136,283.057796 68.2392857,288.215362 76.9347133,280.390776 C91.274259,267.497129 108.047847,249.993564 120.658932,249.393003 C117.237202,242.010106 111.293232,226.537693 110.623009,220.832714 L106.531007,219.967223 C104.326299,215.215988 98.9644032,193.261493 97.4475632,176.764669 C97.4475632,176.764669 95.6837429,158.978503 97.4475632,152.725959 C96.4774387,152.620636 94.6960556,154.085967 94.2021786,154.103688 C91.8916261,148.434017 99.3877121,100.515602 106.813263,86.5621854 L118.189613,82.0229009 C117.007968,81.880798 108.788705,81.5106618 87.1646773,79.7444399 C75.0121773,90.5008929 61.0606648,102.052203 53.987871,108.322401 C52.7885293,109.205612 50.7777789,116.058616 50.7777789,116.058616 C50.7777789,116.058616 47.2502051,119.202517 43.8813972,121.516303 C39.507189,124.589604 28.8010611,126.956386 26.4728624,123.282558 C25.9436428,122.381793 26.0319574,121.993267 26.4728624,121.516303 C28.1308053,119.750081 34.3922071,116.782755 36.5087847,112.808689 C33.0870548,114.574944 29.2772919,116.3412 26.2964503,116.040945 C24.9912647,116.040945 24.321009,112.773347 25.9966149,112.190491 C30.5471516,110.265282 34.1452936,109.435167 36.826233,105.655364 C39.5071723,101.875577 42.5409359,99.5971162 46.6681638,99.508795 C46.6681638,99.508795 66.7752842,73.2092952 78.6279488,60.6512283 C81.9086091,57.2247097 87.9936321,58.3551131 87.9936321,58.3551131 L89.0166786,54.3633928 C89.0166786,54.3633928 129.583727,49.5061657 148.56209,55.7763971 C148.121185,44.2781001 153.271393,29 171.244373,29 C180.486583,29 194.085355,37.1777872 195.937306,47.1041253 C196.501751,50.1597219 194.737964,52.1909239 193.803099,56.0590147 C192.198078,61.9053114 194.438162,68.4227684 193.803099,70.4539704 C193.274046,72.1319046 191.386769,71.9906877 189.746439,74.2690986 C188.310368,76.5154777 187.065433,78.878816 186.024807,81.3341198 L183.573202,86.8448364 L170.909195,85.9263502 C166.28809,95.9410262 156.7989,116.34125 153.447738,136.564831 L153.447738,136.564831 C163.395446,137.412601 208.477822,143.947779 208.477822,143.947779 L209.57132,147.621606 C209.57132,147.621606 228.567263,149.900067 244.106201,157.318323 C247.633774,158.166092 256.311606,156.85908 262.043888,159.490825 C262.431871,159.26112 263.384466,158.289805 263.807709,158.024825 C284.073595,164.277369 300.847116,174.910226 320.372279,179.64379 C320.372279,179.64379 329.508645,181.869255 332.577634,182.469815 C337.755855,183.476907 342.993292,184.149522 348.257624,184.483313 C354.519126,184.977831 357.993778,184.88956 362.562028,185.15454 C365.807279,185.348803 369.758161,184.801289 371.045751,189.534853 L370.975967,189.571014 Z M400.05997,127.821943 C386.256889,127.793522 375.043629,138.974361 375.014463,152.796793 C374.986082,166.619241 386.151179,177.848228 399.954376,177.877468 C413.757457,177.905889 424.970834,166.725049 425,152.902618 C425,152.884228 425,152.86751 425,152.84912 C424.979966,139.03356 413.785855,127.846886 399.989535,127.856649 L400.059653,127.821542 L400.05997,127.821943 Z" id="path13" fill="#FFFFFF"></path>
        </g>
    </g>
</svg>