<?xml version="1.0" encoding="UTF-8"?>
<svg width="445px" height="449px" viewBox="0 0 445 449" version="1.1" xmlns="http://www.w3.org/2000/svg" xmlns:xlink="http://www.w3.org/1999/xlink">
    <!-- Generator: Sketch 46.2 (44496) - http://www.bohemiancoding.com/sketch -->
    <title>LaLiga</title>
    <desc>Created with Sketch.</desc>
    <defs></defs>
    <g id="Page-3" stroke="none" stroke-width="1" fill="none" fill-rule="evenodd">
        <g id="LaLiga" fill-rule="nonzero">
            <g id="#931c81ff" transform="translate(62.000000, 0.000000)" fill="#931C81">
                <path d="M137.44,0 L139.27,0 C140.88,1.93 141.07,4.49 141.52,6.87 C146.64,34.94 152.06,62.96 157.1,91.04 C157.81,93.64 154.78,94.23 152.93,94.53 C125.67,99.7 100.85,116.6 86.17,140.16 C85.02,141.97 84.04,143.91 82.64,145.56 C81.46,146.63 79.99,145.74 78.84,145.15 C53.54,130.46 28.26,115.73 2.93,101.07 C1.79,100.3 0.16,99.59 0.17,97.96 C1.04,95.46 2.58,93.27 3.94,91.02 C15.42,72.38 30.04,55.68 47,41.83 C72.96,20.51 104.42,6.07 137.44,0 Z" id="Shape"></path>
            </g>
            <g id="#e52620ff" transform="translate(221.000000, 22.000000)" fill="#E52620">
                <path d="M16.57,0.8 C69.55,-3.96 124.08,13.9 164,49.05 C165.41,49.99 165.39,52.09 164.15,53.16 C145.46,74.81 126.69,96.39 107.99,118.03 C106.72,119.4 105.66,121.07 104.03,122.04 C102.32,122.66 101.08,121.03 99.88,120.14 C77.95,101.29 47.71,92.52 19.1,96.81 C17.33,97.14 14.6,97.43 14.27,95.03 C9.76,65.4 5.47,35.72 1.07,6.07 C0.57,4.56 1.32,2.65 3.03,2.47 C7.5,1.64 12.04,1.24 16.57,0.8 Z" id="Shape"></path>
            </g>
            <g id="#2d52a0ff" transform="translate(4.000000, 99.000000)" fill="#2D52A0">
                <path d="M24.57,1.46 C25.79,-0.19 27.84,0.94 29.22,1.69 C55.26,15.74 81.39,29.61 107.4,43.69 C109.6,44.66 108.77,47.23 107.75,48.78 C93.94,74.36 92.01,105.97 102.54,133.06 C103.63,134.96 103.79,137.88 101.11,138.4 C73.29,149.14 45.47,159.87 17.63,170.54 C16.2,171.35 14.25,170.73 13.81,169.08 C-7.69,115.31 -3.67,52.02 24.57,1.46 Z" id="Shape"></path>
            </g>
            <g id="#ef7d1bff" transform="translate(315.000000, 104.000000)" fill="#EF7D1B">
                <path d="M63.41,1.5 C64.43,0.17 66.43,0.37 67.45,1.61 C109.74,40.84 133.16,99.36 129.66,156.94 C129.66,158.81 127.56,159.54 126,159.21 C96.31,157.76 66.61,156.35 36.91,154.88 C34.79,155.1 33.69,152.88 34.14,151.05 C35.77,121.4 23.57,91.39 1.78,71.24 C0.14,70.18 -0.05,67.8 1.59,66.64 C22.17,44.91 42.76,23.18 63.41,1.5 Z" id="Shape"></path>
            </g>
            <g id="#000101ff" transform="translate(143.000000, 152.000000)" fill="#000101">
                <path d="M66.5,0.69 C80.74,-1.02 95.45,1.41 108.32,7.76 C123.88,15.35 136.63,28.51 143.71,44.31 C150.17,58.57 151.89,74.89 148.68,90.21 C145.36,106.35 136.43,121.23 123.86,131.86 C102.03,150.9 68.82,155.11 42.9,142.2 C27.27,134.66 14.44,121.51 7.3,105.69 C-0.52,88.6 -1.45,68.51 4.67,50.74 C13.53,24.09 38.55,3.74 66.5,0.69 L66.5,0.69 Z M18.9,35.93 C21.56,34.35 24.25,32.82 27.1,31.61 C23.84,38.92 21.95,46.94 22.77,54.98 C29.26,57.87 35.66,60.96 42.2,63.72 C35.13,63.48 28.24,61.18 21.27,59.99 C15.93,65.99 12.55,73.49 10.9,81.31 C8.88,79.22 8.21,76.31 6.9,73.8 C6.58,72.46 4.73,74.8 6.88,75.05 C6.72,89.76 11.75,104.47 20.69,116.14 C20.05,113.31 19.48,110.46 19.16,107.57 C25.12,112.95 32.19,117.14 40.05,118.99 C45.15,113.71 49.82,108.01 55.1,102.91 C51.85,109.43 48,115.64 44.49,122.03 C48.57,129.09 54.88,134.52 61.86,138.61 C58.91,139.19 55.93,139.73 52.91,139.7 C67.41,144.81 83.59,144.7 98.12,139.74 C95.05,139.71 92.03,139.19 89.03,138.61 C96.06,134.57 102.35,129.09 106.46,122.03 C102.98,115.64 99.05,109.48 95.92,102.92 C101.11,108.09 105.83,113.72 110.92,119 C118.77,117.12 125.86,112.94 131.82,107.55 C131.43,110.47 130.91,113.38 130.24,116.26 C139.02,104.44 144.47,89.7 143.91,74.89 L145.06,73.62 C144.61,73.29 144.28,73.36 144.05,73.82 C142.65,76.27 142.16,79.29 140.02,81.26 C138.39,73.47 135.01,66.01 129.71,60.01 C122.73,61.3 115.84,63.31 108.76,63.9 C115.19,60.81 121.75,57.99 128.21,54.97 C128.97,46.93 127.12,38.92 123.85,31.61 C126.65,32.8 129.31,34.29 131.9,35.89 C123.14,23.13 109.89,13.57 95.07,9.16 C97.53,11.14 99.84,13.32 101.91,15.72 C93.86,14.74 85.47,15.49 78.03,18.88 C77.33,26.01 76.55,33.14 75.54,40.24 C74.32,33.18 73.7,26.03 72.96,18.9 C65.52,15.48 57.11,14.76 49.04,15.7 C51.16,13.35 53.37,11.07 55.95,9.23 C40.96,13.41 27.86,23.28 18.9,35.93 Z" id="Shape"></path>
                <path d="M75.35,42.99 C85.63,50.19 95.68,57.7 105.86,65.04 C102.3,75.99 98.68,86.93 95.2,97.91 C94.67,98.9 94.76,101.18 93.02,100.72 C80.94,100.76 68.86,100.67 56.78,100.76 C52.82,88.87 49.03,76.93 45.12,65.03 C55.18,57.66 65.35,50.44 75.35,42.99 Z" id="Shape"></path>
            </g>
            <g id="#ffffffff" transform="translate(148.000000, 161.000000)" fill="#FFFFFF">
                <path d="M13.9,26.93 C22.86,14.28 35.96,4.41 50.95,0.23 C48.37,2.07 46.16,4.35 44.04,6.7 C52.11,5.76 60.52,6.48 67.96,9.9 C68.7,17.03 69.32,24.18 70.54,31.24 C71.55,24.14 72.33,17.01 73.03,9.88 C80.47,6.49 88.86,5.74 96.91,6.72 C94.84,4.32 92.53,2.14 90.07,0.16 C104.89,4.57 118.14,14.13 126.9,26.89 C124.31,25.29 121.65,23.8 118.85,22.61 C122.12,29.92 123.97,37.93 123.21,45.97 C116.75,48.99 110.19,51.81 103.76,54.9 C110.84,54.31 117.73,52.3 124.71,51.01 C130.01,57.01 133.39,64.47 135.02,72.26 C137.16,70.29 137.65,67.27 139.05,64.82 C139.28,64.36 139.61,64.29 140.06,64.62 L138.91,65.89 C139.47,80.7 134.02,95.44 125.24,107.26 C125.91,104.38 126.43,101.47 126.82,98.55 C120.86,103.94 113.77,108.12 105.92,110 C100.83,104.72 96.11,99.09 90.92,93.92 C94.05,100.48 97.98,106.64 101.46,113.03 C97.35,120.09 91.06,125.57 84.03,129.61 C87.03,130.19 90.05,130.71 93.12,130.74 C78.59,135.7 62.41,135.81 47.91,130.7 C50.93,130.73 53.91,130.19 56.86,129.61 C49.88,125.52 43.57,120.09 39.49,113.03 C43,106.64 46.85,100.43 50.1,93.91 C44.82,99.01 40.15,104.71 35.05,109.99 C27.19,108.14 20.12,103.95 14.16,98.57 C14.48,101.46 15.05,104.31 15.69,107.14 C6.75,95.47 1.72,80.76 1.88,66.05 C-0.27,65.8 1.58,63.46 1.9,64.8 C3.21,67.31 3.88,70.22 5.9,72.31 C7.55,64.49 10.93,56.99 16.27,50.99 C23.24,52.18 30.13,54.48 37.2,54.72 C30.66,51.96 24.26,48.87 17.77,45.98 C16.95,37.94 18.84,29.92 22.1,22.61 C19.25,23.82 16.56,25.35 13.9,26.93 L13.9,26.93 Z M70.35,33.99 C60.35,41.44 50.18,48.66 40.12,56.03 C44.03,67.93 47.82,79.87 51.78,91.76 C63.86,91.67 75.94,91.76 88.02,91.72 C89.76,92.18 89.67,89.9 90.2,88.91 C93.68,77.93 97.3,66.99 100.86,56.04 C90.68,48.7 80.63,41.19 70.35,33.99 Z" id="Shape"></path>
            </g>
            <g id="#4384c5ff" transform="translate(0.000000, 257.000000)" fill="#4384C5">
                <path d="M84.22,1.21 C86.1,-2.88657986e-15 88.03,1.51 88.52,3.39 C100.01,30.51 123.91,51.94 152.08,60.52 C154.28,60.79 156.15,62.75 154.91,65 C146.09,93.36 137.25,121.72 128.38,150.07 C128.14,151.54 126.61,153 125.05,152.29 C71.18,136.41 25.33,96.06 2.21,44.93 C1.49,42.62 -1,40.01 0.57,37.61 C2.25,36.47 4.19,35.8 6.03,34.99 C32.1,23.75 58.14,12.43 84.22,1.21 Z" id="Shape"></path>
            </g>
            <g id="#ffe609ff" transform="translate(276.000000, 269.000000)" fill="#FFE609">
                <path d="M45.26,1.19 C47.37,-0.53 50.46,0.88 52.96,0.76 C81.02,2.97 109.08,5.12 137.14,7.33 C138.53,7.26 140.22,8.23 140.06,9.82 C136.51,67.84 105.42,123.46 57.97,156.99 C56.21,157.78 54.99,156.13 54.11,154.91 C36.66,131.03 19.1,107.23 1.66,83.35 C0.19,81.84 1.21,79.69 2.84,78.85 C26.56,61.8 42.13,34.05 44.44,4.94 C44.65,3.69 44.48,2.28 45.26,1.19 Z" id="Shape"></path>
            </g>
            <g id="#20a637ff" transform="translate(133.000000, 333.000000)" fill="#20A637">
                <path d="M114.38,1.55 C115.73,0.26 117.93,0.58 118.73,2.3 C135.49,27.22 152.29,52.11 168.94,77.1 C170.75,80.05 166.73,81.53 164.88,82.91 C117.61,113.98 56.7,123.25 2.37,107.45 C0.51,106.84 0.72,104.62 1.26,103.16 C8.57,76.75 15.85,50.32 23.14,23.91 C23.89,21.35 24.39,18.7 25.45,16.25 C26.89,14.42 29.21,15.84 31.01,16.1 C59.18,23.63 90.37,18.02 114.38,1.55 Z" id="Shape"></path>
            </g>
        </g>
    </g>
</svg>