<?xml version="1.0" encoding="UTF-8"?>
<svg width="400px" height="400px" viewBox="0 0 400 400" version="1.1" xmlns="http://www.w3.org/2000/svg" xmlns:xlink="http://www.w3.org/1999/xlink">
    <!-- Generator: Sketch 46.2 (44496) - http://www.bohemiancoding.com/sketch -->
    <title>football-player-posture</title>
    <desc>Created with Sketch.</desc>
    <defs>
        <linearGradient x1="0%" y1="0%" x2="101.999998%" y2="100.999999%" id="linearGradient-1">
            <stop stop-color="#3023AE" offset="0%"></stop>
            <stop stop-color="#C86DD7" offset="100%"></stop>
        </linearGradient>
    </defs>
    <g id="Page-3" stroke="none" stroke-width="1" fill="none" fill-rule="evenodd">
        <g id="Artboard-2" transform="translate(-50.000000, -50.000000)">
            <g id="football-player-posture" transform="translate(50.000000, 50.000000)">
                <circle id="Oval-2" fill="url(#linearGradient-1)" cx="200" cy="200" r="200"></circle>
                <ellipse id="Oval" fill="#FFFFFF" fill-rule="nonzero" cx="288" cy="113" rx="17" ry="19"></ellipse>
                <path d="M65.0006457,215 C74.3903532,215 82,223.508755 82,234.001443 C82,244.497018 74.3903532,253 65.0006457,253 C55.6135207,253 48,244.497018 48,234.001443 C48,223.508755 55.6135207,215 65.0006457,215 Z" id="Shape" fill="#FFFFFF" fill-rule="nonzero"></path>
                <path d="M310.925157,159.774062 C310.269141,158.042163 309.172777,156.759113 307.934137,155.719099 L308.006241,155.621301 L306.708373,154.680544 L260.437706,121.151196 L258.613867,119.833844 L256.761058,118.493867 L256.441741,118.985046 C255.858473,118.853675 255.257179,118.779232 254.645584,118.779232 L215.338082,118.779232 L182.95898,101.042053 C178.374596,98.5328804 172.836769,100.708518 170.610565,105.921 C168.38758,111.129832 170.318931,117.404953 174.91619,119.920694 L209.208617,138.701537 C210.462064,139.389041 211.834611,139.744471 213.230334,139.744471 L242.911982,139.744471 L205.059431,197.808681 C186.475327,209.302852 163.949978,223.19526 157.371153,227.138558 C156.065559,227.653092 154.771554,228.477805 153.43699,229.612699 C152.709515,230.22722 152.077319,230.943918 151.503708,231.695648 L163.366067,227.420275 L163.799333,227.273578 L199.554437,215.691827 C199.540274,215.917346 199.500359,216.11878 199.500359,216.34138 C199.500359,216.900433 199.564737,217.473354 199.678043,218.044085 C199.824182,218.781218 200.080408,219.497186 200.38878,220.190529 L164.91501,231.6847 C164.793979,231.716813 164.677454,231.760603 164.561573,231.801474 L148.91441,237.446017 L95.5910923,256.705632 C89.0998212,259.042564 85.5178086,266.904346 87.5856419,274.263272 C89.2588357,280.212157 94.1052395,284 99.3295444,284 C100.568184,284 101.832575,283.792727 103.075722,283.33877 L164.239037,261.259802 L171.864012,258.502486 L191.88311,252.017902 L244.506635,234.974796 C245.396987,234.682862 246.219743,234.279264 246.993571,233.799762 L247.538212,234.247151 L249.424498,231.789797 L251.171084,229.511982 L255.215977,224.253521 L257.424799,221.389648 L295.442802,171.973983 L308.210321,205.622294 C308.550882,206.511233 308.989943,207.344704 309.52879,208.093515 L339.57997,250.025453 C341.412178,252.576226 344.076799,253.895768 346.762665,253.895768 C348.81376,253.895768 350.87773,253.13528 352.585045,251.546429 C356.542383,247.899444 357.154621,241.301006 353.92669,236.803033 L324.688609,195.99723 L310.925157,159.774062 Z" id="Shape" fill="#FFFFFF" fill-rule="nonzero"></path>
                <path d="M195.609909,256 L173.392111,263.004283 L168,264.90364 C171.328919,268.23055 174.875151,271.857245 178.092826,275.235546 C180.489104,277.764454 183.561902,279 186.628232,279 C189.902822,279 193.168357,277.578158 195.604735,274.75232 C200.168982,269.477516 200.092663,261.248394 195.609909,256 Z" id="Shape" fill="#FFFFFF" fill-rule="nonzero"></path>
            </g>
        </g>
    </g>
</svg>