<?xml version="1.0" encoding="UTF-8"?>
<svg width="569px" height="123px" viewBox="0 0 569 123" version="1.1" xmlns="http://www.w3.org/2000/svg" xmlns:xlink="http://www.w3.org/1999/xlink">
    <!-- Generator: Sketch 46.2 (44496) - http://www.bohemiancoding.com/sketch -->
    <title>Group</title>
    <desc>Created with Sketch.</desc>
    <defs>
        <linearGradient x1="0%" y1="0%" x2="101.999998%" y2="100.999999%" id="linearGradient-1">
            <stop stop-color="#3023AE" offset="0%"></stop>
            <stop stop-color="#C86DD7" offset="100%"></stop>
        </linearGradient>
        <linearGradient x1="109.435183%" y1="25.3742596%" x2="0%" y2="113.97121%" id="linearGradient-2">
            <stop stop-color="#3023AE" offset="0%"></stop>
            <stop stop-color="#C86DD7" offset="100%"></stop>
        </linearGradient>
    </defs>
    <g id="Page-3" stroke="none" stroke-width="1" fill="none" fill-rule="evenodd">
        <g id="Artboard-2" transform="translate(-45.000000, -229.000000)">
            <g id="Group" transform="translate(45.000000, 229.000000)">
                <g id="football-player-posture">
                    <circle id="Oval-2" fill="url(#linearGradient-1)" cx="61.5" cy="61.5" r="61.5"></circle>
                    <ellipse id="Oval" fill="#FFFFFF" fill-rule="nonzero" cx="88.8333333" cy="34.9259259" rx="5.31481481" ry="6.07407407"></ellipse>
                    <path d="M20.5002019,65.2962963 C23.435764,65.2962963 25.8148148,68.0164442 25.8148148,71.3708318 C25.8148148,74.7261423 23.435764,77.4444444 20.5002019,77.4444444 C17.5654471,77.4444444 15.1851852,74.7261423 15.1851852,71.3708318 C15.1851852,68.0164442 17.5654471,65.2962963 20.5002019,65.2962963 Z" id="Shape" fill="#FFFFFF" fill-rule="nonzero"></path>
                    <path d="M96.8571153,48.6226352 C96.653437,48.0937926 96.3130405,47.7020079 95.9284703,47.3844349 L95.9508569,47.3545719 L95.5478978,47.0673077 L81.1818846,36.8289782 L80.6156231,36.4267191 L80.0403669,36.0175514 L79.9412262,36.167535 C79.7601344,36.1274206 79.573446,36.104689 79.3835595,36.104689 L67.1794541,36.104689 L57.1264629,30.6885657 C55.7031137,29.9223792 53.9837414,30.5867195 53.2925545,32.1783729 C52.6023671,33.768912 53.2020087,35.685047 54.6293555,36.4532393 L65.2763916,42.1880498 C65.665559,42.3979823 66.0917043,42.5065142 66.5250452,42.5065142 L75.740537,42.5065142 L63.9881616,60.2366684 C58.2182104,63.7464625 51.2245906,67.9885687 49.1820115,69.1926717 C48.7766538,69.3497867 48.3748939,69.6016165 47.9605416,69.9481611 C47.7346766,70.1358077 47.5383939,70.3546544 47.3603003,70.5841984 L51.0432989,69.278695 L51.1778185,69.2339005 L62.2789832,65.6973634 C62.2745858,65.7662266 62.2621932,65.8277354 62.2621932,65.8957072 C62.2621932,66.0664166 62.2821813,66.2413603 62.3173603,66.4156354 C62.3627331,66.6407222 62.4422856,66.8593461 62.5380284,67.0710614 L51.5242115,70.5808555 C51.486634,70.5906613 51.4504556,70.6040328 51.4144771,70.6165129 L46.5563809,72.3400983 L30.0006765,78.2211039 C27.9852811,78.9346959 26.8731459,81.3353246 27.5151621,83.5824041 C28.0346516,85.3989214 29.5393522,86.5555556 31.1613827,86.5555556 C31.5459528,86.5555556 31.9385182,86.4922638 32.3244875,86.353646 L51.3143369,79.6117392 L53.6817219,78.7697808 L59.8972068,76.7896855 L76.2356411,71.5855004 C76.5120758,71.4963571 76.7675231,71.3731165 77.0077795,71.2266987 L77.1768785,71.3633107 L77.7625284,70.6129471 L78.3048043,69.9174066 L79.5606536,68.3117131 L80.2464437,67.4372175 L92.0501884,52.3479332 L96.0142191,62.6225885 C96.1199559,62.8940298 96.2562744,63.1485339 96.4235744,63.3771865 L105.753798,76.1812826 C106.322658,76.9601721 107.149963,77.3630997 107.983865,77.3630997 C108.620684,77.3630997 109.261501,77.1308815 109.791584,76.6457191 C111.02025,75.5320966 111.210336,73.5172354 110.208135,72.1437602 L101.130361,59.6835343 L96.8571153,48.6226352 Z" id="Shape" fill="#FFFFFF" fill-rule="nonzero"></path>
                    <path d="M59.74437,78.962963 L53.2144077,80.8127252 L51.6296296,81.3143269 C52.6080215,82.192931 53.6502834,83.1507056 54.5959798,84.0428817 C55.3002623,84.7107415 56.2033786,85.037037 57.104594,85.037037 C58.0670183,85.037037 59.0267813,84.6615427 59.7428493,83.9152664 C61.0843125,82.5222426 61.0618819,80.3490123 59.74437,78.962963 Z" id="Shape" fill="#FFFFFF" fill-rule="nonzero"></path>
                </g>
                <path d="M181.396882,47.1724138 C181.078595,46.8505731 180.498867,46.4137959 179.657681,45.862069 C178.816495,45.3103421 177.793445,44.7701176 176.588503,44.2413793 C175.38356,43.712641 174.076331,43.2643697 172.666775,42.8965517 C171.257219,42.5287338 169.82495,42.3448276 168.369925,42.3448276 C165.778162,42.3448276 163.845735,42.8275814 162.572589,43.7931034 C161.299442,44.7586255 160.662878,46.1149338 160.662878,47.862069 C160.662878,48.8735683 160.901589,49.7126403 161.379019,50.3793103 C161.856449,51.0459803 162.549849,51.6321814 163.45924,52.137931 C164.368631,52.6436807 165.516719,53.1034462 166.90354,53.5172414 C168.290361,53.9310366 169.893138,54.3678138 171.711919,54.8275862 C174.076335,55.4712676 176.224739,56.1609159 178.157194,56.8965517 C180.089649,57.6321876 181.726528,58.5517186 183.067879,59.6551724 C184.40923,60.7586262 185.443647,62.0804521 186.171159,63.6206897 C186.898672,65.1609272 187.262423,67.05746 187.262423,69.3103448 C187.262423,71.9310476 186.773633,74.1724045 185.796038,76.0344828 C184.818443,77.896561 183.499846,79.4022931 181.840208,80.5517241 C180.18057,81.7011552 178.270878,82.5402272 176.111075,83.0689655 C173.951272,83.5977038 171.689197,83.862069 169.324781,83.862069 C165.687218,83.862069 162.095178,83.3103503 158.548555,82.2068966 C155.001931,81.1034428 151.819111,79.54024 149,77.5172414 L153.160442,69.3103448 C153.569668,69.72414 154.308536,70.2643645 155.37707,70.9310345 C156.445605,71.5977045 157.707365,72.2643645 159.16239,72.9310345 C160.617416,73.5977045 162.23156,74.1609172 164.004872,74.6206897 C165.778184,75.0804621 167.596938,75.3103448 169.461189,75.3103448 C174.644716,75.3103448 177.23644,73.6322007 177.23644,70.2758621 C177.23644,69.2183855 176.940893,68.3218428 176.349789,67.5862069 C175.758685,66.850571 174.917511,66.2068993 173.826242,65.6551724 C172.734973,65.1034455 171.416377,64.5977034 169.870412,64.137931 C168.324448,63.6781586 166.596632,63.1724166 164.686911,62.6206897 C162.367965,61.9770083 160.355968,61.2758659 158.650861,60.5172414 C156.945753,59.7586169 155.524851,58.8620741 154.388113,57.8275862 C153.251375,56.7930983 152.398834,55.5977079 151.830464,54.2413793 C151.262095,52.8850507 150.977915,51.2643772 150.977915,49.3793103 C150.977915,46.8965393 151.432603,44.6896648 152.341994,42.7586207 C153.251385,40.8275766 154.513146,39.2183972 156.127314,37.9310345 C157.741483,36.6436717 159.617073,35.66667 161.754141,35 C163.891209,34.33333 166.187386,34 168.642741,34 C172.052956,34 175.190307,34.5402245 178.054888,35.6206897 C180.919469,36.7011548 183.420256,37.9770041 185.557324,39.4482759 L181.396882,47.1724138 Z M209.974342,84 C207.064292,84 204.449833,83.4942579 202.130887,82.4827586 C199.81194,81.4712593 197.845412,80.1034569 196.231244,78.3793103 C194.617075,76.6551638 193.378049,74.6666779 192.514128,72.4137931 C191.650207,70.1609083 191.218253,67.7931159 191.218253,65.3103448 C191.218253,62.7815966 191.650207,60.3908159 192.514128,58.137931 C193.378049,55.8850462 194.617075,53.8965603 196.231244,52.1724138 C197.845412,50.4482672 199.81194,49.0804648 202.130887,48.0689655 C204.449833,47.0574662 207.064292,46.5517241 209.974342,46.5517241 C212.884393,46.5517241 215.487484,47.0574662 217.783696,48.0689655 C220.079908,49.0804648 222.035068,50.4482672 223.649237,52.1724138 C225.263405,53.8965603 226.502432,55.8850462 227.366353,58.137931 C228.230274,60.3908159 228.662228,62.7815966 228.662228,65.3103448 C228.662228,67.7931159 228.230274,70.1609083 227.366353,72.4137931 C226.502432,74.6666779 225.274772,76.6551638 223.683339,78.3793103 C222.091905,80.1034569 220.136744,81.4712593 217.817798,82.4827586 C215.498852,83.4942579 212.884393,84 209.974342,84 Z M200.630399,65.3103448 C200.630399,66.9195483 200.869111,68.3793038 201.346541,69.6896552 C201.823971,71.0000066 202.48327,72.1379262 203.324456,73.1034483 C204.165642,74.0689703 205.15459,74.8160893 206.291328,75.3448276 C207.428067,75.8735659 208.655726,76.137931 209.974342,76.137931 C211.292959,76.137931 212.520618,75.8735659 213.657356,75.3448276 C214.794095,74.8160893 215.783042,74.0689703 216.624229,73.1034483 C217.465415,72.1379262 218.124713,70.9885124 218.602144,69.6551724 C219.079574,68.3218324 219.318285,66.8505828 219.318285,65.2413793 C219.318285,63.6781531 219.079574,62.2298917 218.602144,60.8965517 C218.124713,59.5632117 217.465415,58.4137979 216.624229,57.4482759 C215.783042,56.4827538 214.794095,55.7356348 213.657356,55.2068966 C212.520618,54.6781583 211.292959,54.4137931 209.974342,54.4137931 C208.655726,54.4137931 207.428067,54.6896524 206.291328,55.2413793 C205.15459,55.7931062 204.165642,56.5517193 203.324456,57.5172414 C202.48327,58.4827634 201.823971,59.6321772 201.346541,60.9655172 C200.869111,62.2988572 200.630399,63.7471186 200.630399,65.3103448 Z M232.549854,65.2413793 C232.549854,62.712631 232.981808,60.3218503 233.845729,58.0689655 C234.70965,55.8160807 235.960044,53.839089 237.596947,52.137931 C239.23385,50.4367731 241.211745,49.0804648 243.530692,48.0689655 C245.849638,47.0574662 248.464097,46.5517241 251.374147,46.5517241 C255.284528,46.5517241 258.615121,47.4022903 261.366028,49.1034483 C264.116935,50.8046062 266.1744,53.034469 267.538487,55.7931034 L258.603767,58.5517241 C257.830785,57.2183841 256.807736,56.1954059 255.534589,55.4827586 C254.261442,54.7701114 252.851908,54.4137931 251.305943,54.4137931 C249.987327,54.4137931 248.759668,54.6781583 247.62293,55.2068966 C246.486191,55.7356348 245.497244,56.4712597 244.656057,57.4137931 C243.814871,58.3563266 243.155572,59.4942462 242.678142,60.8275862 C242.200712,62.1609262 241.962001,63.6321759 241.962001,65.2413793 C241.962001,66.8505828 242.212079,68.3218324 242.712244,69.6551724 C243.212409,70.9885124 243.883075,72.1379262 244.724261,73.1034483 C245.565448,74.0689703 246.554395,74.8160893 247.691133,75.3448276 C248.827872,75.8735659 250.032796,76.137931 251.305943,76.137931 C252.942847,76.137931 254.454686,75.7241421 255.841507,74.8965517 C257.228328,74.0689614 258.194541,73.0574772 258.740175,71.862069 L267.674894,74.6206897 C266.447217,77.3793241 264.423853,79.6321752 261.604742,81.3793103 C258.785631,83.1264455 255.398201,84 251.442351,84 C248.532301,84 245.917842,83.4942579 243.598896,82.4827586 C241.279949,81.4712593 239.302054,80.1034569 237.665151,78.3793103 C236.028248,76.6551638 234.766487,74.6551838 233.879831,72.3793103 C232.993175,70.1034369 232.549854,67.7241503 232.549854,65.2413793 Z M271.016889,65.2413793 C271.016889,62.712631 271.448843,60.3218503 272.312764,58.0689655 C273.176685,55.8160807 274.427079,53.839089 276.063982,52.137931 C277.700885,50.4367731 279.67878,49.0804648 281.997727,48.0689655 C284.316673,47.0574662 286.931132,46.5517241 289.841182,46.5517241 C293.751562,46.5517241 297.082156,47.4022903 299.833063,49.1034483 C302.58397,50.8046062 304.641435,53.034469 306.005521,55.7931034 L297.070802,58.5517241 C296.29782,57.2183841 295.274771,56.1954059 294.001624,55.4827586 C292.728477,54.7701114 291.318942,54.4137931 289.772978,54.4137931 C288.454362,54.4137931 287.226703,54.6781583 286.089964,55.2068966 C284.953226,55.7356348 283.964278,56.4712597 283.123092,57.4137931 C282.281906,58.3563266 281.622607,59.4942462 281.145177,60.8275862 C280.667747,62.1609262 280.429035,63.6321759 280.429035,65.2413793 C280.429035,66.8505828 280.679114,68.3218324 281.179279,69.6551724 C281.679444,70.9885124 282.350109,72.1379262 283.191296,73.1034483 C284.032482,74.0689703 285.02143,74.8160893 286.158168,75.3448276 C287.294907,75.8735659 288.499831,76.137931 289.772978,76.137931 C291.409882,76.137931 292.921721,75.7241421 294.308542,74.8965517 C295.695363,74.0689614 296.661576,73.0574772 297.20721,71.862069 L306.141929,74.6206897 C304.914252,77.3793241 302.890888,79.6321752 300.071777,81.3793103 C297.252665,83.1264455 293.865236,84 289.909386,84 C286.999336,84 284.384877,83.4942579 282.06593,82.4827586 C279.746984,81.4712593 277.769089,80.1034569 276.132186,78.3793103 C274.495282,76.6551638 273.233522,74.6551838 272.346866,72.3793103 C271.46021,70.1034369 271.016889,67.7241503 271.016889,65.2413793 Z M328.308217,84 C325.443636,84 322.851912,83.5057521 320.532965,82.5172414 C318.214019,81.5287307 316.236124,80.1839166 314.599221,78.4827586 C312.962317,76.7816007 311.700557,74.804609 310.813901,72.5517241 C309.927245,70.2988393 309.483923,67.9310469 309.483923,65.4482759 C309.483923,62.8735503 309.915877,60.4482872 310.779799,58.1724138 C311.64372,55.8965403 312.894113,53.8965603 314.531017,52.1724138 C316.16792,50.4482672 318.157182,49.0804648 320.498863,48.0689655 C322.840544,47.0574662 325.466371,46.5517241 328.376421,46.5517241 C331.286471,46.5517241 333.889563,47.0574662 336.185775,48.0689655 C338.481986,49.0804648 340.437147,50.4367731 342.051315,52.137931 C343.665484,53.839089 344.893143,55.8160807 345.734329,58.0689655 C346.575516,60.3218503 346.996103,62.6666545 346.996103,65.1034483 C346.996103,65.7011524 346.984735,66.2758593 346.962001,66.8275862 C346.939266,67.3793131 346.88243,67.8390786 346.791491,68.2068966 L319.168886,68.2068966 C319.305295,69.632191 319.646311,70.8965462 320.191945,72 C320.73758,73.1034538 321.442347,74.0459731 322.306268,74.8275862 C323.170189,75.6091993 324.14777,76.2068945 325.239039,76.6206897 C326.330308,77.0344848 327.467029,77.2413793 328.649237,77.2413793 C330.468018,77.2413793 332.184467,76.7931079 333.798636,75.8965517 C335.412804,74.9999955 336.515424,73.8160993 337.106528,72.3448276 L344.949984,74.5517241 C343.631367,77.3103586 341.528433,79.5747038 338.641117,81.3448276 C335.753802,83.1149514 332.309536,84 328.308217,84 Z M337.583956,62.2068966 C337.356608,59.4942393 336.367661,57.3218472 334.617083,55.6896552 C332.866506,54.0574631 330.740837,53.2413793 328.240013,53.2413793 C327.012336,53.2413793 325.864247,53.4597679 324.795713,53.8965517 C323.727179,54.3333355 322.7837,54.9425248 321.965248,55.7241379 C321.146797,56.505751 320.476131,57.4482703 319.953232,58.5517241 C319.430332,59.6551779 319.123417,60.8735566 319.032478,62.2068966 L337.583956,62.2068966 Z M373.868464,55.1724138 C371.094822,55.218391 368.61677,55.7586155 366.434232,56.7931034 C364.251694,57.8275914 362.683019,59.3793 361.728158,61.4482759 L361.728158,83.3103448 L352.588828,83.3103448 L352.588828,47.1724138 L360.977915,47.1724138 L360.977915,54.8965517 C361.614488,53.6551662 362.364724,52.5402348 363.228646,51.5517241 C364.092567,50.5632134 365.024678,49.7011531 366.025008,48.9655172 C367.025338,48.2298814 368.03702,47.6666686 369.060084,47.2758621 C370.083149,46.8850555 371.072097,46.6896552 372.026957,46.6896552 L373.152322,46.6896552 C373.402405,46.6896552 373.641116,46.7126434 373.868464,46.7586207 L373.868464,55.1724138 Z M392.488146,84 C389.487156,84 386.554415,83.5172462 383.689834,82.5517241 C380.825254,81.5862021 378.369936,80.2069055 376.323806,78.4137931 L379.734005,72.6206897 C381.916542,74.1839159 384.042211,75.3678121 386.111075,76.1724138 C388.179939,76.9770155 390.237405,77.3793103 392.283534,77.3793103 C394.102315,77.3793103 395.534584,77.0344862 396.580383,76.3448276 C397.626183,75.655169 398.149074,74.6666731 398.149074,73.3793103 C398.149074,72.0919476 397.535245,71.1494283 396.307567,70.5517241 C395.07989,69.95402 393.07926,69.2643717 390.305619,68.4827586 C387.986672,67.8390772 386.008777,67.2183938 384.371874,66.6206897 C382.734971,66.0229855 381.416374,65.3448314 380.416044,64.5862069 C379.415714,63.8275824 378.688213,62.9540279 378.233517,61.9655172 C377.778822,60.9770066 377.551478,59.7931103 377.551478,58.4137931 C377.551478,56.5747034 377.903861,54.9195476 378.608639,53.4482759 C379.313417,51.9770041 380.302365,50.7241431 381.575512,49.6896552 C382.848659,48.6551672 384.337763,47.8620717 386.042871,47.3103448 C387.747979,46.7586179 389.600834,46.4827586 391.601494,46.4827586 C394.284197,46.4827586 396.796351,46.8735593 399.138032,47.6551724 C401.479713,48.4367855 403.628116,49.7011407 405.583306,51.4482759 L401.900292,57.0344828 C400.081511,55.6551655 398.319593,54.6436814 396.614485,54 C394.909378,53.3563186 393.215663,53.0344828 391.53329,53.0344828 C389.987326,53.0344828 388.691463,53.3563186 387.645664,54 C386.599865,54.6436814 386.076973,55.6781538 386.076973,57.1034483 C386.076973,57.7471297 386.202012,58.27586 386.452095,58.6896552 C386.702177,59.1034503 387.10003,59.4712628 387.645664,59.7931034 C388.191299,60.1149441 388.907433,60.4252859 389.794089,60.7241379 C390.680745,61.02299 391.783365,61.3333317 393.101981,61.6551724 C395.557336,62.2988538 397.660271,62.9425255 399.410848,63.5862069 C401.161425,64.2298883 402.593694,64.9655131 403.707697,65.7931034 C404.821701,66.6206938 405.64014,67.5747072 406.16304,68.6551724 C406.68594,69.7356376 406.947386,71.0344752 406.947386,72.5517241 C406.947386,76.0919717 405.651523,78.8850472 403.05976,80.9310345 C400.467996,82.9770217 396.94416,84 392.488146,84 Z M434.297174,84 C431.478063,84 429.022745,83.3678224 426.931146,82.1034483 C424.839548,80.8390741 423.202669,79.1264476 422.020461,76.9655172 L422.020461,98 L412.88113,98 L412.88113,47.1724138 L420.860994,47.1724138 L420.860994,53.3793103 C422.17961,51.2643572 423.884692,49.5977072 425.976291,48.3793103 C428.06789,47.1609134 430.477739,46.5517241 433.205911,46.5517241 C435.615796,46.5517241 437.84377,47.0459721 439.889899,48.0344828 C441.936028,49.0229934 443.697946,50.3563134 445.175706,52.0344828 C446.653466,53.7126521 447.812922,55.6896438 448.654108,57.9655172 C449.495295,60.2413907 449.915882,62.6436655 449.915882,65.1724138 C449.915882,67.7931166 449.529397,70.2528621 448.756414,72.5517241 C447.983432,74.8505862 446.903547,76.8505662 445.516726,78.5517241 C444.129905,80.2528821 442.481659,81.5862021 440.571939,82.5517241 C438.662218,83.5172462 436.570651,84 434.297174,84 Z M431.227996,76.137931 C432.592082,76.137931 433.853843,75.8390834 435.013316,75.2413793 C436.172789,74.6436752 437.161737,73.8390855 437.980188,72.8275862 C438.79864,71.8160869 439.435204,70.6436848 439.889899,69.3103448 C440.344595,67.9770048 440.571939,66.5977083 440.571939,65.1724138 C440.571939,63.6551648 440.32186,62.2413859 439.821695,60.9310345 C439.32153,59.6206831 438.62813,58.4827634 437.741475,57.5172414 C436.854819,56.5517193 435.809035,55.7931062 434.604092,55.2413793 C433.39915,54.6896524 432.09192,54.4137931 430.682364,54.4137931 C429.818443,54.4137931 428.931801,54.5632169 428.02241,54.862069 C427.113019,55.160921 426.271845,55.5862041 425.498863,56.137931 C424.725881,56.6896579 424.032481,57.3333297 423.418642,58.0689655 C422.804804,58.8046014 422.338748,59.609191 422.020461,60.4827586 L422.020461,68.9655172 C422.838913,71.0344931 424.089306,72.7471197 425.771679,74.1034483 C427.454052,75.4597769 429.272806,76.137931 431.227996,76.137931 Z M465.875609,84 C464.147767,84 462.533622,83.7126466 461.033128,83.137931 C459.532633,82.5632155 458.236771,81.7586259 457.145502,80.7241379 C456.054233,79.68965 455.201692,78.4827655 454.587853,77.1034483 C453.974014,75.724131 453.6671,74.2069048 453.6671,72.5517241 C453.6671,70.8505662 454.042218,69.2758693 454.792465,67.8275862 C455.542712,66.3793031 456.588496,65.1494303 457.929847,64.137931 C459.271199,63.1264317 460.873976,62.3333362 462.738227,61.7586207 C464.602478,61.1839052 466.648576,60.8965517 468.876583,60.8965517 C470.468017,60.8965517 472.025325,61.0344814 473.548555,61.3103448 C475.071784,61.5862083 476.424483,61.977009 477.60669,62.4827586 L477.60669,60.4137931 C477.60669,58.0229766 476.936025,56.1839145 475.594674,54.8965517 C474.253322,53.609189 472.26406,52.9655172 469.626827,52.9655172 C467.717106,52.9655172 465.852883,53.3103414 464.034102,54 C462.215321,54.6896586 460.351098,55.7011428 458.441377,57.0344828 L455.645015,51.1724138 C460.237438,48.0919386 465.193543,46.5517241 470.513478,46.5517241 C475.651536,46.5517241 479.641428,47.8275734 482.483274,50.3793103 C485.32512,52.9310472 486.746021,56.6206655 486.746021,61.4482759 L486.746021,72.6896552 C486.746021,73.6551772 486.91653,74.3448255 487.257551,74.7586207 C487.598573,75.1724159 488.155566,75.4022986 488.928548,75.4482759 L488.928548,83.3103448 C487.382584,83.6321855 486.041253,83.7931034 484.904514,83.7931034 C483.176672,83.7931034 481.846708,83.4023028 480.914583,82.6206897 C479.982457,81.8390766 479.402729,80.8046041 479.175382,79.5172414 L478.97077,77.5172414 C477.379336,79.6321945 475.44691,81.2413738 473.173433,82.3448276 C470.899956,83.4482814 468.467372,84 465.875609,84 Z M468.46736,77.2413793 C470.013324,77.2413793 471.479694,76.96552 472.866515,76.4137931 C474.253336,75.8620662 475.333221,75.1264414 476.106203,74.2068966 C477.106533,73.4252834 477.60669,72.551729 477.60669,71.5862069 L477.60669,67.4482759 C476.515422,67.0344807 475.333231,66.7011507 474.060084,66.4482759 C472.786937,66.195401 471.559278,66.0689655 470.37707,66.0689655 C468.012655,66.0689655 466.080228,66.60919 464.579734,67.6896552 C463.079239,68.7701203 462.329003,70.1379228 462.329003,71.7931034 C462.329003,73.3563297 462.920098,74.6551672 464.102306,75.6896552 C465.284514,76.7241431 466.739517,77.2413793 468.46736,77.2413793 Z M493.020786,65.2413793 C493.020786,62.712631 493.45274,60.3218503 494.316661,58.0689655 C495.180582,55.8160807 496.430976,53.839089 498.067879,52.137931 C499.704782,50.4367731 501.682678,49.0804648 504.001624,48.0689655 C506.32057,47.0574662 508.935029,46.5517241 511.84508,46.5517241 C515.75546,46.5517241 519.086053,47.4022903 521.83696,49.1034483 C524.587867,50.8046062 526.645333,53.034469 528.009419,55.7931034 L519.0747,58.5517241 C518.301717,57.2183841 517.278668,56.1954059 516.005521,55.4827586 C514.732374,54.7701114 513.32284,54.4137931 511.776876,54.4137931 C510.458259,54.4137931 509.2306,54.6781583 508.093862,55.2068966 C506.957123,55.7356348 505.968176,56.4712597 505.126989,57.4137931 C504.285803,58.3563266 503.626504,59.4942462 503.149074,60.8275862 C502.671644,62.1609262 502.432933,63.6321759 502.432933,65.2413793 C502.432933,66.8505828 502.683011,68.3218324 503.183176,69.6551724 C503.683341,70.9885124 504.354007,72.1379262 505.195193,73.1034483 C506.03638,74.0689703 507.025327,74.8160893 508.162066,75.3448276 C509.298804,75.8735659 510.503729,76.137931 511.776876,76.137931 C513.413779,76.137931 514.925618,75.7241421 516.312439,74.8965517 C517.69926,74.0689614 518.665473,73.0574772 519.211108,71.862069 L528.145827,74.6206897 C526.918149,77.3793241 524.894785,79.6321752 522.075674,81.3793103 C519.256563,83.1264455 515.869133,84 511.913284,84 C509.003233,84 506.388774,83.4942579 504.069828,82.4827586 C501.750882,81.4712593 499.772986,80.1034569 498.136083,78.3793103 C496.49918,76.6551638 495.237419,74.6551838 494.350763,72.3793103 C493.464107,70.1034369 493.020786,67.7241503 493.020786,65.2413793 Z M550.312114,84 C547.447534,84 544.855809,83.5057521 542.536863,82.5172414 C540.217916,81.5287307 538.240021,80.1839166 536.603118,78.4827586 C534.966215,76.7816007 533.704454,74.804609 532.817798,72.5517241 C531.931142,70.2988393 531.487821,67.9310469 531.487821,65.4482759 C531.487821,62.8735503 531.919775,60.4482872 532.783696,58.1724138 C533.647617,55.8965403 534.898011,53.8965603 536.534914,52.1724138 C538.171817,50.4482672 540.16108,49.0804648 542.502761,48.0689655 C544.844442,47.0574662 547.470268,46.5517241 550.380318,46.5517241 C553.290369,46.5517241 555.89346,47.0574662 558.189672,48.0689655 C560.485884,49.0804648 562.441044,50.4367731 564.055213,52.137931 C565.669381,53.839089 566.89704,55.8160807 567.738227,58.0689655 C568.579413,60.3218503 569,62.6666545 569,65.1034483 C569,65.7011524 568.988633,66.2758593 568.965898,66.8275862 C568.943163,67.3793131 568.886327,67.8390786 568.795388,68.2068966 L541.172783,68.2068966 C541.309192,69.632191 541.650208,70.8965462 542.195843,72 C542.741477,73.1034538 543.446244,74.0459731 544.310166,74.8275862 C545.174087,75.6091993 546.151667,76.2068945 547.242936,76.6206897 C548.334205,77.0344848 549.470926,77.2413793 550.653134,77.2413793 C552.471916,77.2413793 554.188365,76.7931079 555.802533,75.8965517 C557.416702,74.9999955 558.519322,73.8160993 559.110425,72.3448276 L566.953881,74.5517241 C565.635265,77.3103586 563.53233,79.5747038 560.645015,81.3448276 C557.757699,83.1149514 554.313433,84 550.312114,84 Z M559.587853,62.2068966 C559.360506,59.4942393 558.371558,57.3218472 556.620981,55.6896552 C554.870404,54.0574631 552.744735,53.2413793 550.24391,53.2413793 C549.016233,53.2413793 547.868144,53.4597679 546.79961,53.8965517 C545.731076,54.3333355 544.787597,54.9425248 543.969146,55.7241379 C543.150694,56.505751 542.480029,57.4482703 541.957129,58.5517241 C541.434229,59.6551779 541.127315,60.8735566 541.036375,62.2068966 L559.587853,62.2068966 Z" id="Soccerspace" fill="url(#linearGradient-2)"></path>
            </g>
        </g>
    </g>
</svg>