<?xml version="1.0" encoding="UTF-8"?>
<svg width="82px" height="104px" viewBox="0 0 82 104" version="1.1" xmlns="http://www.w3.org/2000/svg" xmlns:xlink="http://www.w3.org/1999/xlink">
    <!-- Generator: Sketch 46.2 (44496) - http://www.bohemiancoding.com/sketch -->
    <title>pl</title>
    <desc>Created with Sketch.</desc>
    <defs></defs>
    <g id="Page-3" stroke="none" stroke-width="1" fill="none" fill-rule="evenodd">
        <g id="pl" fill-rule="nonzero" fill="#37003C">
            <path d="M16.6,9.2 C21.1,11.3 24.1,13.9 24.6,14.3 C24.4,13.1 23.5,7.5 22.9,4 C25.5,5.8 31.7,10.1 33.7,11.5 C34.5,9 37.4,0.7 37.4,0.7 C37.4,0.7 42.6,9 43.4,10.4 C44.5,9.3 50.6,2.4 52.2,0.7 C52.5,4.6 52.8,10.3 52.9,11.1 C53.2,10.7 55.6,7.4 59.5,4.3 C57.8,7.7 57,12.3 56.6,16.1 C52.7,15 48.6,14.4 44.4,14.4 C36.3,14.4 28.6,16.5 22,20.3 C20.9,16.6 19.1,12.1 16.6,9.2 L16.6,9.2 Z M78.8,80.4 L75.2,76.4 C74.2,87.1 68.9,96.2 59.3,102.6 L57.8,96.8 C49.6,102.7 35.6,106.5 23.5,99.7 C25,92.1 26.3,84.3 23.5,75 C16.8,85.3 10.9,89.4 10.9,89.4 C6.4,81.8 6.8,66.6 8.1,62.1 L0.6,64.4 C0.6,59.3 4.3,48.5 9.6,42.4 L5,41.7 C8.2,35.2 12.9,29.6 18.8,25.3 C17,28.2 17,35 22.1,37.6 C19.9,33.8 19.7,29.1 21.9,26.6 C24.2,24.1 28,25 30.4,26.9 C29.7,24.8 27.5,22.1 24.4,21.9 C30.4,18.8 37.3,17.1 44.5,17.1 C45.9,17.1 47.2,17.2 48.5,17.3 C50.6,18.1 53.7,21.1 55.1,23 C55.1,23 55.2,20.8 54,18.2 C61.8,20.1 65.6,23.3 67.1,24.8 C67.4,28.2 68.4,30.2 69.8,33.4 C67.3,30.6 60.9,26 57.8,24.9 C57.8,24.9 57.5,27.8 56.5,29.2 C50.4,24.8 47.5,23.7 47.5,23.7 C40.8,24.6 36.6,27.2 34.2,29.2 L36.2,30.9 C32.2,32.1 29.6,35.6 29.6,35.6 C29.6,35.7 33.2,36.2 33.2,36.2 C33.2,36.2 32.8,40.4 38.1,43 C42.6,45.2 49,42.5 55.1,44.9 C51.1,40.3 48.4,38.2 48.4,38.2 C48.4,38.2 46.8,37.9 45.7,37.9 C44.3,37.9 42.2,38.2 40,37.3 C38.9,36.9 37.6,36.1 36.7,35.5 C36.7,35.5 39.5,32.6 43.6,32 C43.6,32 47.3,33 50.2,35.2 C52.1,33.3 54.2,33.4 54.2,33.4 C54.2,33.4 52.2,35.3 52.8,37.5 C55.7,40.1 58.9,43.8 58.9,43.8 C62.1,42 69.1,42.4 70.6,44.1 C68.8,41.7 66.1,39.8 64.1,38.1 C63.9,37.2 61.6,34.1 61.3,33.8 C61.3,33.8 63.4,34.5 65.3,36.1 C65.8,35.3 66.9,34.5 68.2,34.2 C69.6,35.4 69.9,37.2 69.8,37.5 C69.2,38.3 68.5,38.6 68.5,38.6 L71.9,42.3 L72.2,39.6 C80,51 84.3,64 78.8,80.4 L78.8,80.4 Z M63.9,56.2 L63.9,50.4 C63.9,50.4 61.3,49.6 58.5,47.4 C52.9,48.2 46.2,53.8 46.2,53.8 C46.2,53.8 48.5,58.1 51,62.8 C55.4,63.4 61.9,57.9 63.9,56.2 L63.9,56.2 Z M69.5,66.7 C69.5,66.7 69.1,64.3 67.1,62.1 L62.8,62.2 C62.8,62.2 56.9,67.2 53.4,67.3 C53.4,67.3 55.4,71 56.4,72.9 C58.4,72.5 61.8,70.9 63.2,69.3 C63.2,69.3 64.1,72.3 63.9,75.8 C65.9,74.6 68.6,71.5 69.5,66.7 L69.5,66.7 Z M71.3,47.6 C69.1,49.4 67.3,50.5 67.3,50.5 L67.3,56.3 C68.9,58 70.4,59.5 71.6,62.1 C73.8,58.2 73.3,52.4 71.3,47.6 L71.3,47.6 Z" id="Shape"></path>
        </g>
    </g>
</svg>