<?xml version="1.0" encoding="UTF-8"?>
<svg width="371px" height="195px" viewBox="0 0 371 195" version="1.1" xmlns="http://www.w3.org/2000/svg" xmlns:xlink="http://www.w3.org/1999/xlink">
    <!-- Generator: Sketch 46.2 (44496) - http://www.bohemiancoding.com/sketch -->
    <title>Group 2</title>
    <desc>Created with Sketch.</desc>
    <defs></defs>
    <g id="Page-3" stroke="none" stroke-width="1" fill="none" fill-rule="evenodd">
        <g id="Group-2">
            <path d="M286.649074,87.9579726 C336.375693,-16.0643174 23.7512277,-38.9423047 0.404038888,101.338226 C-4.78541581,144.070898 40.0767593,175.195228 131.419019,195 C-86.9416624,115.581262 178.981282,0.335673474 286.649074,87.9579726" id="Fill-1" fill="#009949"></path>
            <path d="M85.2744468,115.036751 C41.0009364,221.54328 354.88249,228.058629 370.868457,86.7144161 C373.812394,43.7566165 327.306786,15.0099102 234.910828,0 C457.480278,67.9208245 197.562543,196.933303 85.2744468,115.036751" id="Fill-2" fill="#D8232A"></path>
            <path d="M198.007131,92.0176068 C200.132118,93.240626 201.365752,94.6967721 201.365752,96.2641017 C201.365752,100.582328 191.992275,104.079231 180.429633,104.079231 C178.172725,104.079231 175.987125,103.946528 173.933446,103.699054 L198.007131,92.0176068 Z M160.559572,98.728073 C159.696742,97.9533746 159.493513,97.1248777 159.493513,96.2641017 C159.493513,91.9458754 168.86699,88.4489729 180.429633,88.4489729 C182.023373,88.4489729 183.577894,88.5135311 185.068238,88.6426475 L160.559572,98.728073 Z M153.635535,101.550701 L110.889769,119.142811 C97.8474794,113.415064 90,106.044669 90,98 C90,79.7766547 130.29276,65 179.998217,65 C198.270972,65 215.124691,66.9977176 229.393483,70.4300619 L191.411112,86.0280404 C188.041795,85.3501793 184.330197,84.9735898 180.429633,84.9735898 C165.051996,84.9735898 152.587303,90.8053472 152.587303,98 C152.587303,99.2301924 152.779836,100.420933 153.635535,101.550701 Z M163.985936,108.540919 L129.383579,125.290186 C143.805685,128.894685 161.22987,131 179.998217,131 C229.703674,131 270,116.226932 270,98 C270,87.8500163 257.324948,78.7688295 237.832822,72.7147049 L202.29276,89.9338115 C206.036446,92.1538963 208.271962,94.9550049 208.271962,98 C208.271962,105.194653 195.807269,111.02641 180.429633,111.02641 C174.31138,111.02641 168.606715,110.104663 163.985936,108.540919 L163.985936,108.540919 Z" id="Fill-3" fill="#BCAF82"></path>
        </g>
    </g>
</svg>